# Blender3D v245 OBJ File: <memory>
# www.blender3d.org
mtllib box.mtl
o Cube
vt 8 8
vt 0 8
vt 8 0
vt 0 0
vn 1 0 0
vn -1 0 0
vn 0 1 0
vn 0 -1 0
vn 0 0 1
vn 0 0 -1
v 1.000000 -1.000000 -1.000000
v 1.000000 -1.000000 1.000000
v -1.000000 -1.000000 1.000000
v -1.000000 -1.000000 -1.000000
v 1.000000 1.000000 -1.000000
v 0.999999 1.000000 1.000001
v -1.000000 1.000000 1.000000
v -1.000000 1.000000 -1.000000
usemtl Material
s off
f 5/2/6 1/4/6 4/3/6
f 5/2/6 4/3/6 8/1/6
f 3/2/2 7/4/2 8/3/2
f 3/2/2 8/3/2 4/1/2
f 2/2/5 6/4/5 3/3/5
f 6/2/5 7/3/5 3/1/5
f 1/2/1 5/4/1 2/3/1
f 5/2/1 6/3/1 2/1/1
f 5/2/3 8/4/3 6/3/3
f 8/2/3 7/3/3 6/1/3
f 1/2/4 2/2/4 3/3/4
f 1/2/4 3/3/4 4/3/4
end
